<svg xmlns="http://www.w3.org/2000/svg" width="1024" height="1024" viewBox="0 0 1024 1024">
  <defs>
    <linearGradient id="bg" x1="0" y1="0" x2="1" y2="1">
      <stop offset="0" stop-color="#17242b"/>
      <stop offset="1" stop-color="#0b1115"/>
    </linearGradient>
    <linearGradient id="disk" x1="0" y1="0" x2="0" y2="1">
      <stop offset="0" stop-color="#f8fbfc"/>
      <stop offset="1" stop-color="#cbd8dc"/>
    </linearGradient>
    <linearGradient id="accent" x1="0" y1="0" x2="1" y2="1">
      <stop offset="0" stop-color="#19d3a2"/>
      <stop offset="1" stop-color="#168cff"/>
    </linearGradient>
    <filter id="shadow" x="-20%" y="-20%" width="140%" height="150%">
      <feDropShadow dx="0" dy="28" stdDeviation="30" flood-color="#000" flood-opacity=".38"/>
    </filter>
  </defs>
  <rect x="52" y="52" width="920" height="920" rx="210" fill="url(#bg)"/>
  <path d="M188 735c98 95 222 142 372 127 104-11 193-51 276-121" fill="none" stroke="#293a42" stroke-width="18" stroke-linecap="round"/>
  <g filter="url(#shadow)">
    <rect x="220" y="196" width="584" height="632" rx="112" fill="url(#disk)"/>
    <rect x="268" y="248" width="488" height="424" rx="72" fill="#263941"/>
    <circle cx="512" cy="460" r="154" fill="#111b20"/>
    <circle cx="512" cy="460" r="111" fill="none" stroke="#40545d" stroke-width="18"/>
    <circle cx="512" cy="460" r="35" fill="url(#accent)"/>
    <path d="M512 306v82M666 460h-82M512 614v-82M358 460h82" stroke="#526972" stroke-width="14" stroke-linecap="round"/>
    <rect x="280" y="711" width="464" height="64" rx="32" fill="#aab9be"/>
    <circle cx="674" cy="743" r="15" fill="#19d3a2"/>
  </g>
  <g transform="translate(623 600)">
    <circle cx="93" cy="94" r="112" fill="url(#accent)" stroke="#eafff9" stroke-width="12"/>
    <path d="M58 86V56c0-45 29-71 67-71 27 0 48 13 61 34" fill="none" stroke="#fff" stroke-width="25" stroke-linecap="round"/>
    <rect x="36" y="78" width="117" height="91" rx="25" fill="#fff"/>
    <circle cx="95" cy="117" r="14" fill="#168cff"/>
    <path d="M95 126v20" stroke="#168cff" stroke-width="13" stroke-linecap="round"/>
  </g>
</svg>
